<svg width="28" height="32" viewBox="0 0 28 32" fill="none" xmlns="http://www.w3.org/2000/svg">
<path d="M6.25696 8.3166C6.25696 7.71749 6.78223 7.23181 7.43017 7.23181H19.9444C20.5924 7.23181 21.1177 7.71749 21.1177 8.3166C21.1177 8.91572 20.5924 9.40139 19.9444 9.40139H7.43017C6.78223 9.40139 6.25696 8.91572 6.25696 8.3166Z" fill="white" stroke="white" stroke-width="0.00196296"/>
<path d="M7.43017 12.2937C6.78223 12.2937 6.25696 12.7794 6.25696 13.3785C6.25696 13.9776 6.78223 14.4633 7.43017 14.4633H15.2516C15.8995 14.4633 16.4248 13.9776 16.4248 13.3785C16.4248 12.7794 15.8995 12.2937 15.2516 12.2937H7.43017Z" fill="white" stroke="white" stroke-width="0.00196296"/>
<path fill-rule="evenodd" clip-rule="evenodd" d="M10.4731 7.57749e-07C8.33379 -2.81699e-05 6.60943 -5.70287e-05 5.25326 0.168534C3.84523 0.343575 2.65971 0.718029 1.71813 1.58864C0.776558 2.45924 0.371581 3.55542 0.182271 4.85732C-6.18638e-05 6.11128 -3.04661e-05 7.70566 8.19611e-07 9.68372V21.4136C-3.04661e-05 23.3917 -6.18638e-05 24.986 0.182271 26.24C0.371581 27.5419 0.776558 28.638 1.71813 29.5087C2.65971 30.3793 3.84523 30.7537 5.25326 30.9288C6.60945 31.0973 8.33379 31.0973 10.4731 31.0973H16.9019C19.0413 31.0973 20.7656 31.0973 22.1218 30.9288C23.5298 30.7537 24.7152 30.3793 25.6569 29.5087C26.5985 28.638 27.0035 27.5419 27.1927 26.24C27.375 24.986 27.375 23.3917 27.375 21.4136V9.68373C27.375 7.70567 27.375 6.11129 27.1927 4.85732C27.0035 3.55542 26.5985 2.45924 25.6569 1.58864C24.7152 0.718029 23.5298 0.343575 22.1218 0.168534C20.7656 -5.70287e-05 19.0413 -2.81699e-05 16.9019 7.57749e-07H10.4731ZM3.37731 3.12276C3.81024 2.72246 4.41809 2.46146 5.56591 2.31877C6.74749 2.17188 8.31353 2.16958 10.5589 2.16958H16.8161C19.0614 2.16958 20.6274 2.17188 21.8091 2.31877C22.957 2.46146 23.5647 2.72246 23.9977 3.12276C24.4307 3.52306 24.7129 4.0851 24.8673 5.14641C25.026 6.23894 25.0285 7.68694 25.0285 9.7631V20.2494H7.08931C5.80978 20.2489 4.93668 20.2487 4.18792 20.4342C3.51844 20.6001 2.89743 20.871 2.34643 21.227V9.7631C2.34643 7.68694 2.34891 6.23894 2.50778 5.14641C2.6621 4.0851 2.94437 3.52306 3.37731 3.12276ZM2.38829 24.5872C2.41206 25.099 2.44934 25.5489 2.50778 25.9509C2.6621 27.0122 2.94437 27.5742 3.37731 27.9745C3.81024 28.3749 4.41809 28.6358 5.56591 28.7786C6.74749 28.9254 8.31353 28.9277 10.5589 28.9277H16.8161C19.0614 28.9277 20.6274 28.9254 21.8091 28.7786C22.957 28.6358 23.5647 28.3749 23.9977 27.9745C24.4307 27.5742 24.7129 27.0122 24.8673 25.9509C24.9968 25.0595 25.0223 23.9316 25.0273 22.419H7.27045C5.74017 22.419 5.20519 22.4282 4.79522 22.5299C3.67 22.8086 2.77298 23.582 2.38829 24.5872Z" fill="white" stroke="white" stroke-width="0.00196296"/>
</svg>
