<svg width="19" height="19" viewBox="0 0 19 19" fill="none" xmlns="http://www.w3.org/2000/svg">
<path d="M6.25646 11.8112C6.08151 11.9862 6.08151 12.2698 6.25646 12.4448C6.43141 12.6197 6.71507 12.6197 6.89003 12.4448L6.25646 11.8112ZM9.87668 9.4581C10.0516 9.28314 10.0516 8.99952 9.87668 8.82456C9.70172 8.64961 9.4181 8.64961 9.24314 8.82456L9.87668 9.4581ZM9.24314 8.82456C9.06818 8.99952 9.06818 9.28314 9.24314 9.4581C9.4181 9.63306 9.70172 9.63306 9.87668 9.4581L9.24314 8.82456ZM12.8633 6.47145C13.0383 6.29649 13.0383 6.01283 12.8633 5.83788C12.6884 5.66293 12.4048 5.66293 12.2298 5.83788L12.8633 6.47145ZM9.87668 8.82456C9.70172 8.64961 9.4181 8.64961 9.24314 8.82456C9.06818 8.99952 9.06818 9.28314 9.24314 9.4581L9.87668 8.82456ZM12.2298 12.4448C12.4048 12.6197 12.6884 12.6197 12.8633 12.4448C13.0383 12.2698 13.0383 11.9862 12.8633 11.8112L12.2298 12.4448ZM9.24314 9.4581C9.4181 9.63306 9.70172 9.63306 9.87668 9.4581C10.0516 9.28314 10.0516 8.99952 9.87668 8.82456L9.24314 9.4581ZM6.89003 5.83788C6.71507 5.66293 6.43141 5.66293 6.25646 5.83788C6.08151 6.01283 6.08151 6.29649 6.25646 6.47145L6.89003 5.83788ZM6.89003 12.4448L9.87668 9.4581L9.24314 8.82456L6.25646 11.8112L6.89003 12.4448ZM9.87668 9.4581L12.8633 6.47145L12.2298 5.83788L9.24314 8.82456L9.87668 9.4581ZM9.24314 9.4581L12.2298 12.4448L12.8633 11.8112L9.87668 8.82456L9.24314 9.4581ZM9.87668 8.82456L6.89003 5.83788L6.25646 6.47145L9.24314 9.4581L9.87668 8.82456Z" fill="white"/>
<path d="M6.25646 11.8112C6.08151 11.9862 6.08151 12.2698 6.25646 12.4448C6.43141 12.6197 6.71507 12.6197 6.89003 12.4448M6.25646 11.8112L6.89003 12.4448M6.25646 11.8112L9.24314 8.82456M6.89003 12.4448L9.87668 9.4581M9.87668 9.4581C10.0516 9.28314 10.0516 8.99952 9.87668 8.82456M9.87668 9.4581L9.24314 8.82456M9.87668 9.4581C9.70172 9.63306 9.4181 9.63306 9.24314 9.4581M9.87668 9.4581L12.8633 6.47145M9.87668 8.82456C9.70172 8.64961 9.4181 8.64961 9.24314 8.82456M9.87668 8.82456L9.24314 9.4581M9.87668 8.82456L12.8633 11.8112M9.87668 8.82456L6.89003 5.83788M9.24314 8.82456C9.06818 8.99952 9.06818 9.28314 9.24314 9.4581M9.24314 8.82456L12.2298 5.83788M9.24314 9.4581L12.2298 12.4448M9.24314 9.4581L6.25646 6.47145M12.8633 6.47145C13.0383 6.29649 13.0383 6.01283 12.8633 5.83788C12.6884 5.66293 12.4048 5.66293 12.2298 5.83788M12.8633 6.47145L12.2298 5.83788M12.2298 12.4448C12.4048 12.6197 12.6884 12.6197 12.8633 12.4448C13.0383 12.2698 13.0383 11.9862 12.8633 11.8112M12.2298 12.4448L12.8633 11.8112M6.89003 5.83788C6.71507 5.66293 6.43141 5.66293 6.25646 5.83788C6.08151 6.01283 6.08151 6.29649 6.25646 6.47145M6.89003 5.83788L6.25646 6.47145" stroke="white" stroke-width="0.00025"/>
<rect x="1.09985" y="0.97998" width="16.92" height="16.92" rx="2.5" stroke="white"/>
</svg>
