<svg width="31" height="28" viewBox="0 0 31 28" fill="none" xmlns="http://www.w3.org/2000/svg">
<path d="M29.7582 13.861L15.72 0.265325C15.5433 0.0949891 15.3002 -0.00012207 15.0458 -0.00012207C14.7915 -0.00012207 14.5474 0.0958537 14.3707 0.265325L0.260523 13.861C-0.0976301 14.2052 -0.0845383 14.7525 0.287642 15.0836C0.660758 15.4139 1.25176 15.4044 1.60991 15.0586L2.86672 13.8472V26.7849C2.86672 27.2622 3.28566 27.6496 3.80185 27.6496H10.3346C10.8499 27.6496 11.2679 27.2648 11.2698 26.7875L11.2988 18.1505H18.7508V26.7849C18.7508 27.2622 19.1697 27.6496 19.6859 27.6496H26.2159C26.7321 27.6496 27.151 27.2622 27.151 26.7849V13.8429L28.4069 15.0594C28.5911 15.2358 28.8361 15.3257 29.0821 15.3257C29.3149 15.3257 29.5487 15.2462 29.7292 15.0845C30.1013 14.7542 30.1135 14.2069 29.7563 13.8628L29.7582 13.861ZM25.2817 12.2787V25.9194H20.622V17.285C20.622 16.8077 20.203 16.4204 19.6868 16.4204H10.3683C9.85305 16.4204 9.43505 16.8052 9.43318 17.2824L9.40419 25.9194H4.73884V12.2779C4.73884 12.207 4.72669 12.1378 4.70892 12.0712L15.0467 2.11048L25.3163 12.06C25.2967 12.13 25.2826 12.2026 25.2826 12.2779L25.2817 12.2787Z" fill="white" stroke="white" stroke-width="0.00032"/>
</svg>
