<svg width="22" height="29" viewBox="0 0 22 29" fill="none" xmlns="http://www.w3.org/2000/svg">
<path d="M21.6056 24.3249C21.5939 24.8699 21.4988 25.4062 21.3259 25.9021C21.153 26.398 20.9059 26.8432 20.5992 27.2114C20.2925 27.5796 19.9325 27.8633 19.5405 28.0455C19.1486 28.2277 18.7327 28.3049 18.3175 28.2723C15.7244 28.2912 13.1313 28.2723 10.5381 28.2723C10.3784 28.2723 10.2252 28.1891 10.1123 28.041C9.99936 27.893 9.93591 27.6922 9.93591 27.4828C9.93591 27.2734 9.99936 27.0726 10.1123 26.9246C10.2252 26.7765 10.3784 26.6933 10.5381 26.6933C13.1879 26.6933 15.8376 26.7439 18.4873 26.6933C19.8206 26.6681 20.4012 25.3544 20.4012 23.7912V4.11281C20.4105 3.61586 20.3038 3.12703 20.0955 2.71169C19.8871 2.29635 19.587 1.9743 19.2353 1.7886C18.8195 1.63983 18.3868 1.58904 17.9574 1.6386H10.5381C10.3784 1.6386 10.2252 1.55542 10.1123 1.40737C9.99936 1.25931 9.93591 1.0585 9.93591 0.849123C9.93591 0.639741 9.99936 0.438936 10.1123 0.290881C10.2252 0.142826 10.3784 0.0596491 10.5381 0.0596491C13.2168 0.0596491 15.9159 -0.0745614 18.5921 0.0596491C19.002 0.0732369 19.4056 0.193541 19.7797 0.41356C20.1537 0.633579 20.4906 0.94892 20.7708 1.34123C21.051 1.73355 21.2689 2.195 21.4118 2.69873C21.5547 3.20247 21.6198 3.73844 21.6032 4.27544L21.6056 24.3249Z" fill="white"/>
<path d="M0.176431 13.6118C0.0746715 13.7412 0.0150983 13.9172 0.0102199 14.1029C0.0102199 14.1265 0.0102199 14.1471 0.00299333 14.1708C-0.00423323 14.1944 0.00299338 14.2134 0.0102199 14.2355C0.0150393 14.4217 0.0745972 14.5982 0.176431 14.7281L4.59547 20.5213C4.70905 20.6651 4.86117 20.7447 5.01907 20.7429C5.17697 20.7411 5.32801 20.658 5.43967 20.5117C5.55132 20.3653 5.61466 20.1673 5.61603 19.9603C5.6174 19.7533 5.5567 19.5539 5.447 19.405L2.05654 14.9587H14.9945C15.1542 14.9587 15.3074 14.8755 15.4203 14.7274C15.5333 14.5794 15.5967 14.3786 15.5967 14.1692C15.5967 13.9598 15.5333 13.759 15.4203 13.6109C15.3074 13.4629 15.1542 13.3797 14.9945 13.3797H2.05654L5.447 8.93339C5.5567 8.78449 5.6174 8.58507 5.61603 8.37807C5.61466 8.17107 5.55132 7.97307 5.43967 7.82669C5.32801 7.68032 5.17697 7.59729 5.01907 7.59549C4.86117 7.59369 4.70905 7.67326 4.59547 7.81707L0.176431 13.6118Z" fill="white"/>
</svg>
