<svg width="31" height="25" viewBox="0 0 31 25" fill="none" xmlns="http://www.w3.org/2000/svg">
<path d="M28.3655 4.83798H3.15172C2.65019 4.83798 2.1692 4.65376 1.81456 4.32585C1.45992 3.99795 1.26069 3.55321 1.26069 3.08947C1.26069 2.62574 1.45992 2.181 1.81456 1.85309C2.1692 1.52518 2.65019 1.34096 3.15172 1.34096H24.5834C24.7506 1.34096 24.911 1.27956 25.0292 1.17026C25.1474 1.06095 25.2138 0.912706 25.2138 0.758129C25.2138 0.603551 25.1474 0.455305 25.0292 0.346002C24.911 0.236699 24.7506 0.175293 24.5834 0.175293H3.15172C2.31612 0.176153 1.51501 0.483457 0.924145 1.02979C0.333284 1.57611 0.000929727 2.31685 0 3.08947V21.7402C0.000929727 22.5128 0.333284 23.2536 0.924145 23.7999C1.51501 24.3462 2.31612 24.6535 3.15172 24.6544H28.3655C28.8669 24.6539 29.3476 24.4695 29.7021 24.1417C30.0566 23.8139 30.256 23.3695 30.2565 22.9059V6.58649C30.256 6.12291 30.0566 5.67846 29.7021 5.35066C29.3476 5.02287 28.8669 4.83849 28.3655 4.83798ZM28.9959 22.9059C28.9957 23.0604 28.9292 23.2086 28.8111 23.3178C28.6929 23.4271 28.5326 23.4886 28.3655 23.4887H3.15172C2.65036 23.4882 2.16968 23.3038 1.81517 22.976C1.46065 22.6482 1.26124 22.2038 1.26069 21.7402V5.41939C1.80549 5.7992 2.46942 6.00433 3.15172 6.00365H28.3655C28.5326 6.00381 28.6929 6.06526 28.8111 6.17453C28.9292 6.2838 28.9957 6.43196 28.9959 6.58649V22.9059ZM23.9531 14.7462C23.9531 14.9767 23.8792 15.2021 23.7406 15.3938C23.6021 15.5855 23.4052 15.7349 23.1749 15.8231C22.9445 15.9114 22.691 15.9344 22.4465 15.8895C22.2019 15.8445 21.9773 15.7335 21.801 15.5704C21.6247 15.4074 21.5046 15.1997 21.4559 14.9736C21.4073 14.7475 21.4323 14.5131 21.5277 14.3001C21.6231 14.0871 21.7847 13.9051 21.992 13.777C22.1993 13.6489 22.4431 13.5805 22.6924 13.5805C22.858 13.5805 23.0219 13.6107 23.1749 13.6692C23.3278 13.7278 23.4668 13.8137 23.5839 13.9219C23.7009 14.0302 23.7938 14.1587 23.8571 14.3001C23.9205 14.4415 23.9531 14.5931 23.9531 14.7462Z" fill="white"/>
</svg>
